<?xml version="1.0" encoding="UTF-8"?>
<!DOCTYPE svg PUBLIC "-//W3C//DTD SVG 1.1//EN" "http://www.w3.org/Graphics/SVG/1.1/DTD/svg11.dtd">
<!-- Creator: CorelDRAW -->
<svg xmlns="http://www.w3.org/2000/svg" xml:space="preserve" width="6.82666in" height="6.82666in" style="shape-rendering:geometricPrecision; text-rendering:geometricPrecision; image-rendering:optimizeQuality; fill-rule:evenodd; clip-rule:evenodd"
viewBox="0 0 6.82666 6.82666"
 xmlns:xlink="http://www.w3.org/1999/xlink">
 <defs>
  <style type="text/css">
   <![CDATA[
    .fil2 {fill:none}
    .fil1 {fill:#4E342E}
    .fil4 {fill:#558B2F}
    .fil3 {fill:#689F38}
    .fil0 {fill:#6D4C41}
   ]]>
  </style>
   <clipPath id="id0">
    <path d="M3.41333 -3.93701e-006c1.88513,0 3.41333,1.5282 3.41333,3.41333 0,1.88513 -1.5282,3.41333 -3.41333,3.41333 -1.88513,0 -3.41333,-1.5282 -3.41333,-3.41333 0,-1.88513 1.5282,-3.41333 3.41333,-3.41333z"/>
   </clipPath>
 </defs>
 <g id="Layer_x0020_1">
  <metadata id="CorelCorpID_0Corel-Layer"/>
  <path class="fil0" d="M3.41333 -3.93701e-006c1.88513,0 3.41333,1.5282 3.41333,3.41333 0,1.88513 -1.5282,3.41333 -3.41333,3.41333 -1.88513,0 -3.41333,-1.5282 -3.41333,-3.41333 0,-1.88513 1.5282,-3.41333 3.41333,-3.41333z"/>
  <g style="clip-path:url(#id0)">
   <g id="_457170488">
    <g>
     <polygon id="_4528522641" class="fil1" points="5.28,2.16589 9.06626,5.95217 9.01116,5.998 8.95769,6.0452 8.90581,6.09366 8.85543,6.14326 8.80651,6.19391 8.75896,6.2455 8.71273,6.29794 8.66776,6.35111 8.62396,6.40491 8.58129,6.45924 8.53968,6.51399 8.49905,6.56907 8.45934,6.62436 8.4205,6.67976 8.38244,6.73517 8.34512,6.79049 8.30846,6.84561 8.27239,6.90043 8.23686,6.95485 8.20179,7.00875 8.16712,7.06204 8.13279,7.11462 8.09873,7.16637 8.06487,7.2172 8.03115,7.267 7.9975,7.31567 7.96387,7.3631 7.93017,7.40919 7.89635,7.45384 7.86234,7.49694 7.82808,7.5384 7.7935,7.57809 4.00724,3.79182 4.04181,3.75213 4.07607,3.71067 4.11008,3.66757 4.1439,3.62292 4.1776,3.57683 4.21124,3.5294 4.24488,3.48073 4.2786,3.43093 4.31246,3.3801 4.34652,3.32835 4.38085,3.27577 4.41552,3.22248 4.45059,3.16857 4.48613,3.11416 4.52219,3.05934 4.55885,3.00422 4.59618,2.9489 4.63423,2.89349 4.67307,2.83809 4.71278,2.7828 4.75341,2.72772 4.79502,2.67296 4.8377,2.61864 4.88149,2.56483 4.92646,2.51167 4.97269,2.45923 5.02024,2.40764 5.06917,2.35699 5.11954,2.30739 5.17143,2.25893 5.22489,2.21173 "/>
     <polygon id="_452852600" class="fil1" points="1.98047,4.20689 5.76674,7.99316 5.75448,8.01154 5.74221,8.02995 5.72995,8.04839 5.71767,8.06685 5.70539,8.08535 5.69309,8.10387 5.68078,8.12241 5.66844,8.14098 5.65608,8.15956 5.6437,8.17817 5.63128,8.1968 5.61883,8.21545 5.60635,8.23411 5.59382,8.2528 5.58125,8.27149 5.56864,8.2902 5.55597,8.30893 5.54325,8.32767 5.53047,8.34642 5.51764,8.36519 5.50474,8.38395 5.49177,8.40273 5.47874,8.42152 5.46563,8.44031 5.45244,8.45911 5.43918,8.47791 5.42583,8.49672 5.41239,8.51553 5.39887,8.53434 5.38525,8.55315 5.37154,8.57195 5.35772,8.59076 1.57145,4.80449 1.58527,4.78568 1.59898,4.76687 1.6126,4.74807 1.62613,4.72926 1.63956,4.71045 1.65291,4.69164 1.66617,4.67284 1.67936,4.65404 1.69247,4.63525 1.7055,4.61646 1.71847,4.59768 1.73137,4.57891 1.7442,4.56015 1.75698,4.5414 1.7697,4.52266 1.78237,4.50393 1.79498,4.48522 1.80756,4.46652 1.82008,4.44784 1.83257,4.42918 1.84502,4.41053 1.85743,4.3919 1.86981,4.37329 1.88217,4.3547 1.89451,4.33614 1.90682,4.31759 1.91912,4.29908 1.93141,4.28058 1.94368,4.26212 1.95594,4.24368 1.96821,4.22527 "/>
     <polygon id="_452852696" class="fil1" points="4.00724,3.79182 7.7935,7.57809 7.71432,7.66368 7.63557,7.74336 7.55732,7.81725 7.47963,7.88547 7.40255,7.94816 7.32615,8.00542 7.25048,8.05739 7.17559,8.10419 7.10156,8.14593 7.02843,8.18274 6.95626,8.21475 6.88512,8.24207 6.81506,8.26483 6.74613,8.28315 6.67841,8.29715 6.61194,8.30695 6.54678,8.31268 6.483,8.31446 6.42065,8.31242 6.35978,8.30667 6.30046,8.29733 6.24275,8.28454 6.1867,8.2684 6.13237,8.24905 6.07983,8.22661 6.02912,8.20119 5.98031,8.17293 5.93345,8.14194 5.88861,8.10834 5.84584,8.07227 2.05957,4.286 2.10234,4.32207 2.14719,4.35567 2.19404,4.38666 2.24285,4.41492 2.29356,4.44033 2.34611,4.46278 2.40043,4.48213 2.45648,4.49826 2.5142,4.51106 2.57351,4.52039 2.63438,4.52615 2.69673,4.52819 2.76052,4.52641 2.82567,4.52068 2.89214,4.51087 2.95987,4.49687 3.02879,4.47856 3.09885,4.4558 3.16999,4.42848 3.24216,4.39647 3.31529,4.35966 3.38932,4.31791 3.46421,4.27112 3.53988,4.21915 3.61628,4.16189 3.69336,4.0992 3.77106,4.03098 3.8493,3.95709 3.92805,3.87741 "/>
    </g>
    <path id="_457170560" class="fil1" d="M1.90003 4.10462c-0.581669,-0.842736 0.0187913,-2.59423 3.37996,-1.93873 -0.596811,0.481346 -0.90198,1.21222 -1.27276,1.62593 -0.846795,0.944858 -1.62846,0.860402 -2.02676,0.415063 -0.130811,0.195909 -0.261126,0.39702 -0.40902,0.597602l-0.0247874 -0.19524c0.120453,-0.167177 0.235043,-0.33715 0.353366,-0.504626z"/>
   </g>
  </g>
  <path class="fil2" d="M3.41333 -3.93701e-006c1.88513,0 3.41333,1.5282 3.41333,3.41333 0,1.88513 -1.5282,3.41333 -3.41333,3.41333 -1.88513,0 -3.41333,-1.5282 -3.41333,-3.41333 0,-1.88513 1.5282,-3.41333 3.41333,-3.41333z"/>
  <path class="fil3" d="M5.28 2.16589c-0.596815,0.481343 -0.901984,1.21222 -1.27276,1.62593 -2.35234,2.62476 -4.20209,-2.69364 1.27276,-1.62593z"/>
  <path class="fil4" d="M1.54667 4.60925c0.474516,-0.658583 0.858091,-1.36057 1.73702,-1.7824 0.356146,-0.170925 0.427866,-0.235 0.826406,-0.32872l-0.00431496 0.00105118c0.165736,-0.022248 0.234898,-0.00777953 0.39376,0.00461417 -0.128283,0.0184646 -0.0366535,0.0097874 -0.192516,0.0138189 -0.375343,0.00971654 -0.667102,0.206575 -0.990752,0.373303 -0.910512,0.469071 -1.21476,1.19468 -1.74481,1.91357l-0.0247874 -0.195244z"/>
  <path class="fil4" d="M3.0162 2.98093c0.0627047,-0.00843701 0.127118,-0.0146693 0.193496,-0.0184055 0.333224,-0.018752 0.409878,-0.045689 0.751339,0.00951575l-0.0037126 -0.000562992c0.136614,0.0360276 0.185965,0.0696024 0.306039,0.130469 -0.106134,-0.0269094 -0.0317756,-0.00416142 -0.154803,-0.0512362 -0.296276,-0.113339 -0.587571,-0.0535906 -0.894063,-0.0276457 -0.0673346,0.00570472 -0.13228,0.013815 -0.195118,0.0241142 0.00744882,-0.0216575 0.00625197,-0.0454252 -0.00317717,-0.066248z"/>
  <path class="fil4" d="M2.40976 3.45936c0.00360236,-0.000216535 0.00716929,-0.000492126 0.0107835,-0.000688976 0.394413,-0.0221969 0.485146,-0.0540827 0.889311,0.0112638l-0.0043937 -0.000669291c0.161701,0.0426417 0.220114,0.0823819 0.36224,0.154425 -0.125626,-0.0318465 -0.0376142,-0.0049252 -0.183232,-0.0606417 -0.350685,-0.13415 -0.695469,-0.0634331 -1.05824,-0.0327205l-0.00779528 0.000720472c0.00553937,-0.0240827 0.0024685,-0.0496063 -0.00866929,-0.071689z"/>
  <path class="fil4" d="M3.39826 2.83915c0.0240157,-0.0347835 0.0463898,-0.0704488 0.0669055,-0.107114 0.102992,-0.184083 0.148067,-0.227102 0.18326,-0.413512l-0.000413386 0.00202756c0.000901575,-0.0741654 -0.0182047,-0.100343 -0.0450079,-0.164657 -0.00172835,0.0576496 -0.00420079,0.017378 0.00881496,0.0837283 0.031315,0.159791 -0.0996969,0.322 -0.20265,0.491575 -0.0226181,0.037252 -0.0469016,0.0732638 -0.0727205,0.108181 0.022378,-0.00475197 0.0445394,-0.00479921 0.061811,-0.000228346z"/>
  <path class="fil4" d="M2.60835 3.35041c0.00133465,-0.00237795 0.00270866,-0.00472835 0.0040315,-0.00711417 0.144634,-0.260496 0.202862,-0.318264 0.268969,-0.592283l-0.000755906 0.00297638c0.0110709,-0.110957 -0.00761417,-0.152996 -0.0300945,-0.253303 -0.00979528,0.0860984 -0.00722835,0.0254094 -0.00105906,0.126724 0.0148268,0.243988 -0.159433,0.467575 -0.302063,0.706343l-0.00311811 0.00512598c0.024185,-0.00174409 0.0470079,0.00235039 0.0640906,0.0115315z"/>
 </g>
</svg>
